<svg xmlns="http://www.w3.org/2000/svg" viewBox="0 0 900 1200">
  <defs>
    <linearGradient id="bg" x1="0" x2="1" y1="0" y2="1">
      <stop offset="0" stop-color="#fff6df"/>
      <stop offset=".45" stop-color="#ead1a2"/>
      <stop offset="1" stop-color="#5c0a14"/>
    </linearGradient>
    <radialGradient id="light" cx="50%" cy="18%" r="62%">
      <stop offset="0" stop-color="#ffffff" stop-opacity=".95"/>
      <stop offset=".65" stop-color="#ffffff" stop-opacity=".2"/>
      <stop offset="1" stop-color="#ffffff" stop-opacity="0"/>
    </radialGradient>
    <filter id="shadow" x="-20%" y="-20%" width="140%" height="140%">
      <feDropShadow dx="0" dy="12" stdDeviation="12" flood-color="#1b0b04" flood-opacity=".35"/>
    </filter>
  </defs>
  <rect width="900" height="1200" fill="url(#bg)"/>
  <rect width="900" height="1200" fill="url(#light)"/>
  <circle cx="450" cy="775" r="360" fill="#102130" opacity=".22"/>
  <path d="M0 760 C190 660 320 720 450 650 C590 575 730 620 900 545 L900 1200 L0 1200 Z" fill="#00205b" opacity=".78"/>
  <path d="M0 870 C260 760 470 840 900 700 L900 1200 L0 1200 Z" fill="#ba0c2f" opacity=".72"/>
  <g filter="url(#shadow)">
    <circle cx="450" cy="545" r="145" fill="#fff8e8"/>
    <circle cx="450" cy="545" r="122" fill="none" stroke="#1e1e1e" stroke-width="18"/>
    <path d="M450 423 L495 505 L587 518 L520 585 L535 680 L450 634 L365 680 L380 585 L313 518 L405 505 Z" fill="#1e1e1e"/>
    <circle cx="450" cy="545" r="44" fill="#fff8e8"/>
  </g>
  <text x="450" y="170" text-anchor="middle" font-family="Georgia, serif" font-size="96" font-weight="700" fill="#24080d">VM I LOGEN</text>
  <line x1="190" y1="220" x2="710" y2="220" stroke="#c99838" stroke-width="6"/>
  <text x="450" y="290" text-anchor="middle" font-family="Arial, sans-serif" font-size="38" font-weight="700" fill="#4a2d16">YBK inviterer til fodboldaften</text>
  <text x="450" y="405" text-anchor="middle" font-family="Georgia, serif" font-size="68" font-weight="700" fill="#7a1020">GRUPPEKAMP</text>
  <text x="450" y="475" text-anchor="middle" font-family="Arial, sans-serif" font-size="48" font-weight="800" fill="#19130e">Norge – Frankrig</text>
  <text x="450" y="1020" text-anchor="middle" font-family="Arial, sans-serif" font-size="48" font-weight="900" fill="#fff5dc">26. juni</text>
  <text x="450" y="1085" text-anchor="middle" font-family="Arial, sans-serif" font-size="34" font-weight="700" fill="#fff5dc">Dørene åbner kl. 20.00 · Kampstart kl. 21.00</text>
  <text x="450" y="1138" text-anchor="middle" font-family="Arial, sans-serif" font-size="30" fill="#fff5dc">Logen, Frederiksgade 15, Slagelse</text>
  <text x="450" y="725" text-anchor="middle" font-family="Arial, sans-serif" font-size="54" font-weight="900" fill="#fff8e8">⚽</text>
</svg>